<svg width="518" height="116" viewBox="0 0 518 116" fill="none" xmlns="http://www.w3.org/2000/svg">
<path d="M19.2385 111.427C16.6163 111.518 14.0045 111.052 11.5748 110.062C9.14515 109.071 6.95261 107.578 5.14135 105.68C3.33007 103.781 1.94105 101.521 1.06558 99.048C0.190122 96.5744 -0.151959 93.9435 0.0618271 91.3286V48.9114C0.0618271 16.7518 26.232 0.795898 52.1936 0.795898C78.1551 0.795898 104.199 16.7518 104.199 48.9114V111.427H100.809C98.1867 111.518 95.5749 111.052 93.1452 110.062C90.7156 109.071 88.5228 107.578 86.7116 105.68C84.9004 103.781 83.5113 101.521 82.6359 99.048C81.7605 96.5744 81.4185 93.9435 81.6323 91.3286V48.9114C81.6323 31.7428 66.9325 23.0759 52.3197 23.0759C37.7067 23.0759 23.0069 31.7428 23.0069 48.9114V111.427H19.2385ZM33.9339 63.9024H58.2743C60.0247 63.8402 61.7685 64.1449 63.3941 64.7969C65.0196 65.4484 66.4909 66.4333 67.7136 67.6873C68.9363 68.9412 69.8829 70.4373 70.4932 72.0789C71.1034 73.7206 71.3638 75.4718 71.2573 77.22V83.2485H47.2647C45.4909 83.3585 43.7137 83.0907 42.051 82.4635C40.3883 81.8359 38.8777 80.8627 37.6189 79.6079C36.3602 78.3535 35.382 76.8457 34.7491 75.1854C34.1161 73.5246 33.8427 71.7486 33.947 69.9744L33.9339 63.9024Z" fill="black"/>
<path d="M124.802 94.5532H179.237C191.464 94.5532 200.761 90.9935 200.761 82.9525C200.761 73.5293 188.199 70.7258 173.039 67.6268C152.102 63.1456 126.475 57.5778 126.475 32.4942C126.519 9.58832 147.708 0 170.918 0H218.599V20.6023H172.526C160.591 20.6023 151.589 24.2881 151.589 33.1636C151.589 42.0391 164.15 44.5948 178.807 47.5678C199.744 51.7535 226.04 56.8215 226.04 82.3657C226.04 105.732 202.799 115.195 177.129 115.195H143.644C141.096 115.292 138.557 114.847 136.196 113.889C133.834 112.93 131.703 111.48 129.944 109.634C128.185 107.789 126.84 105.591 125.996 103.185C125.152 100.78 124.829 98.2229 125.05 95.6833L124.802 94.5532Z" fill="black"/>
<path d="M265.04 26.9258C262.566 27.0948 260.084 26.7297 257.764 25.8557C255.443 24.9811 253.338 23.6181 251.591 21.8586C249.843 20.0992 248.495 17.9846 247.636 15.6584C246.778 13.3317 246.43 10.8477 246.616 8.37501V3.09839H269.187V26.9258H265.04Z" fill="#FB4D3D"/>
<path d="M265.036 111.426C262.518 111.51 260.011 111.062 257.678 110.11C255.346 109.158 253.24 107.723 251.501 105.901C249.761 104.078 248.427 101.909 247.584 99.5342C246.742 97.1601 246.41 94.6344 246.612 92.123V36.0535H269.183V111.426H265.036Z" fill="black"/>
<path d="M284.222 3.09839H396.404V22.275H300.091C297.903 22.3446 295.726 21.9538 293.699 21.1284C291.672 20.3026 289.842 19.0599 288.326 17.4817C286.81 15.9031 285.643 14.0237 284.9 11.9652C284.157 9.90671 283.855 7.71522 284.013 5.53242L284.222 3.09839ZM327.56 33.8758H350.132V111.426H345.524C343.063 111.511 340.611 111.074 338.33 110.143C336.05 109.211 333.994 107.807 332.296 106.022C330.599 104.237 329.299 102.113 328.482 99.7892C327.666 97.4651 327.352 94.9946 327.56 92.5401V33.8758Z" fill="black"/>
<path d="M405.695 3.09839H431.865L455.232 39.3176L452.303 43.5032C451.503 45.3014 450.199 46.8287 448.548 47.901C446.9 48.9728 444.975 49.5435 443.006 49.5435C441.037 49.5435 439.111 48.9728 437.46 47.901C435.812 46.8287 434.508 45.3014 433.708 43.5032L405.695 3.09839ZM450.291 65.9093L491.286 3.09839H517.457L472.862 67.7957V111.426H468.676C457.662 111.426 450.251 103.68 450.251 91.9143L450.291 65.9093Z" fill="black"/>
</svg>
